#define 6342701a6d3c44e5818f5621f143b793_width 16
#define 6342701a6d3c44e5818f5621f143b793_height 16
static char 6342701a6d3c44e5818f5621f143b793_bits[] = {
  0xC0, 0x00, 0x38, 0x07, 0x24, 0x19, 0x24, 0x29, 0x08, 0x20, 0x0C, 0x20,
  0x42, 0x25, 0x42, 0x25, 0x42, 0x15, 0x44, 0x15, 0x08, 0x08, 0x10, 0x08,
  0xF0, 0x0F, 0x00, 0x00, 0x00, 0x00, 0x00, 0x00};
